<?xml version="1.0" encoding="UTF-8"?>
<svg id="Ebene_1" xmlns="http://www.w3.org/2000/svg" version="1.1" viewBox="0 0 1855.58 690.76">
  <!-- Generator: Adobe Illustrator 29.4.0, SVG Export Plug-In . SVG Version: 2.1.0 Build 152)  -->
  <defs>
    <style>
      .st0 {
        font-family: ArialMT, Arial;
        font-size: 50px;
        letter-spacing: .01em;
      }

      .st1 {
        stroke-miterlimit: 10;
        stroke-width: 5.67px;
      }

      .st1, .st2, .st3, .st4 {
        stroke: #000;
      }

      .st2 {
        stroke-width: 5.67px;
      }

      .st2, .st4 {
        stroke-miterlimit: 10;
      }

      .st3 {
        stroke-miterlimit: 10;
        stroke-width: 2.83px;
      }

      .st3, .st4 {
        fill: none;
      }

      .st4 {
        stroke-width: 2.83px;
      }
    </style>
  </defs>
  <path class="st3" d="M26.62,11.11l-8.97,341.41,394.81.92,1.63-154.61,28.55-1.89,3.03,34.46-6.83,10.46,1.23,11.8,7.92,2.95,18.65-2.74s7.19,25.87,12.62,35.88,59.72,117.02,195.48,93.23l3.11,16.81,737.55-260.98,151.21-44.63-9.02-37.2-20.55,3.54-3.51-19.51,4.53-1.17-1.81-10.12-5.1.35.33-22.23-601.28,14.02-320.52-1.12,1.66,15.93s-104.4,10.71-144.78,131.73l-49.43.54,5.35-160.93L26.62,11.11Z"/>
  <path class="st3" d="M1531.3,19.54l-756.47,15.95-154.94,15.5s-96.86,7.41-138.85,122.65c0,0-18.49,61.75,19.26,119.77,37.75,58.02,67.7,84.08,162.67,75.16l22.99-2.41,70.13-13.76,95.21-26.61,327.4-119.15s152.45-55.69,153.74-56.19,66.02-23.07,66.02-23.07l69.67-21.98,48.15-11.66-12.62-39.95-3.73-33.58"/>
  <polyline class="st3" points="1503.66 53.79 943.37 156.8 669.18 204.51"/>
  <ellipse class="st4" cx="648.35" cy="209.7" rx="20" ry="19.79" transform="translate(-2.08 412.87) rotate(-35.27)"/>
  <path class="st3" d="M672.14,204l-2.96.51-1.18.08"/>
  <line class="st3" x1="624.15" y1="50.57" x2="646.25" y2="189.95"/>
  <line class="st3" x1="628.67" y1="213.03" x2="478.9" y2="238.81"/>
  <line class="st3" x1="651.2" y1="229.3" x2="674.62" y2="367.35"/>
  <line class="st3" x1="1371.45" y1="22.91" x2="1391.43" y2="129.83"/>
  <line class="st3" x1="1232.48" y1="25.84" x2="1258.26" y2="177.57"/>
  <line class="st3" x1="1077.92" y1="29.1" x2="1114.84" y2="229.88"/>
  <line class="st3" x1="928.39" y1="33.24" x2="969.28" y2="282.85"/>
  <line class="st3" x1="774.83" y1="35.5" x2="822.07" y2="333.96"/>
  <path class="st3" d="M1104.48,173.54l-145.23,48.06-147.84,45.01-149.74,24.39s-78.92,14.39-99.65-66.5c0,0-16.09-83.59,74.32-97.05l149.78-20.59,152.38-11.92,148.76-15.01"/>
  <line class="st3" x1="511.76" y1="116.43" x2="632.39" y2="196.73"/>
  <line class="st3" x1="542.09" y1="344.05" x2="636.18" y2="227.11"/>
  <ellipse class="st2" cx="649.17" cy="209.11" rx="2.62" ry="2.59" transform="translate(-1.58 413.24) rotate(-35.27)"/>
  <ellipse class="st2" cx="322.09" cy="255.55" rx="2.46" ry="2.44" transform="translate(-88.44 232.89) rotate(-35.27)"/>
  <ellipse class="st1" cx="131.35" cy="101.04" rx="2.46" ry="2.44" transform="translate(-34.24 94.42) rotate(-35.28)"/>
  <ellipse class="st4" cx="131.34" cy="101.41" rx="10.76" ry="10.64" transform="translate(-34.45 94.45) rotate(-35.27)"/>
  <ellipse class="st4" cx="324.54" cy="101.65" rx="10.76" ry="10.64" transform="translate(.88 206.06) rotate(-35.27)"/>
  <ellipse class="st4" cx="322.09" cy="255.55" rx="10.76" ry="10.64" transform="translate(-88.44 232.89) rotate(-35.27)"/>
  <ellipse class="st4" cx="125.9" cy="256.91" rx="10.76" ry="10.64" transform="translate(-125.24 119.86) rotate(-35.27)"/>
  <polyline class="st3" points="115.26 255.78 38.49 255.98 40.49 101.64"/>
  <polyline class="st3" points="126.05 267.59 124.04 335.13 35.78 333.69 38.49 255.98"/>
  <path class="st3" d="M136.59,257.22c58.31.05,116.62.1,174.93.15"/>
  <line class="st3" x1="217.98" y1="335.09" x2="223.44" y2="203.48"/>
  <polyline class="st3" points="132.5 91.28 135.38 23.93 326.64 23.54 135.38 23.93 43.18 23.74 40.49 101.64 119.75 100.3"/>
  <polyline class="st3" points="131.02 111.19 129.21 183.86 126.04 246.24"/>
  <polyline class="st3" points="141.05 101.42 226.84 101.64 313.83 102.2"/>
  <polyline class="st3" points="335.17 100.25 405.87 100.61 401.69 255.62"/>
  <line class="st3" x1="324" y1="112.3" x2="320.82" y2="244.96"/>
  <path class="st3" d="M124.04,335.13l93.94-.04,97.71-.04,5.31-68.87"/>
  <polyline class="st3" points="315.68 335.04 399.17 335.28 401.69 255.62 332.81 255.2"/>
  <polyline class="st3" points="405.87 100.61 406.46 24.29 326.64 23.54 324.98 90.97"/>
  <ellipse class="st4" cx="223.79" cy="183.85" rx="19.78" ry="19.57" transform="translate(-65.08 162.97) rotate(-35.27)"/>
  <line class="st3" x1="229.26" y1="23.74" x2="224.42" y2="164.2"/>
  <line class="st3" x1="39.31" y1="182.7" x2="204.06" y2="184.08"/>
  <line class="st3" x1="403.66" y1="182.79" x2="243.46" y2="184.6"/>
  <polygon class="st3" points="228.77 179.04 228.71 187.82 219.89 187.85 219.95 179.06 228.77 179.04"/>
  <text class="st0" transform="translate(1245.37 251.67)"><tspan x="0" y="0">ALTER </tspan><tspan x="0" y="60">SÜDLICHER</tspan><tspan x="0" y="120">FRIEDHOF</tspan></text>
</svg>